<?xml version="1.0" encoding="UTF-8" standalone="no"?>
<!-- Created with Inkscape (http://www.inkscape.org/) -->

<svg
   xmlns:dc="http://purl.org/dc/elements/1.1/"
   xmlns:cc="http://creativecommons.org/ns#"
   xmlns:rdf="http://www.w3.org/1999/02/22-rdf-syntax-ns#"
   xmlns:svg="http://www.w3.org/2000/svg"
   xmlns="http://www.w3.org/2000/svg"
   xmlns:sodipodi="http://sodipodi.sourceforge.net/DTD/sodipodi-0.dtd"
   xmlns:inkscape="http://www.inkscape.org/namespaces/inkscape"
   width="270"
   height="270"
   id="svg4260"
   version="1.1"
   inkscape:version="0.91 r13725"
   sodipodi:docname="tpaw paw.svg"
   inkscape:export-filename="E:\zc456\Box Sync\Default Sync Folder\My Media\TPaw\Logos\tpaw paw.png"
   inkscape:export-xdpi="341.33334"
   inkscape:export-ydpi="341.33334">
  <defs
     id="defs4262" />
  <sodipodi:namedview
     id="base"
     pagecolor="#ffffff"
     bordercolor="#666666"
     borderopacity="1.0"
     inkscape:pageopacity="0"
     inkscape:pageshadow="2"
     inkscape:zoom="0.97227183"
     inkscape:cx="132.19234"
     inkscape:cy="134.69074"
     inkscape:current-layer="g4158"
     showgrid="true"
     inkscape:document-units="px"
     inkscape:grid-bbox="true"
     inkscape:window-width="1280"
     inkscape:window-height="790"
     inkscape:window-x="-8"
     inkscape:window-y="-8"
     inkscape:window-maximized="1"
     fit-margin-top="0"
     fit-margin-left="0"
     fit-margin-right="0"
     fit-margin-bottom="0" />
  <metadata
     id="metadata4265">
    <rdf:RDF>
      <cc:Work
         rdf:about="">
        <dc:format>image/svg+xml</dc:format>
        <dc:type
           rdf:resource="http://purl.org/dc/dcmitype/StillImage" />
        <dc:title></dc:title>
      </cc:Work>
    </rdf:RDF>
  </metadata>
  <g
     id="layer1"
     inkscape:label="Layer 1"
     inkscape:groupmode="layer"
     transform="translate(-116.72641,346.47494)">
    <g
       id="g4158"
       transform="matrix(2.2607235,-0.01654088,0.12712078,2.4951403,-1156.8886,-1555.322)">
      <path
         sodipodi:nodetypes="sssss"
         inkscape:connector-curvature="0"
         id="path3950"
         d="m 592.49553,524.1496 c 0,7.61279 -4.71627,9.2516 -10.98875,11.23585 -6.59099,2.085 -15.47882,-5.24473 -15.47882,-12.85752 0,-7.6128 7.94255,-17.95418 14.53356,-17.95418 6.59097,0 11.93401,11.96306 11.93401,19.57585 z"
         style="fill:#0078a4;fill-opacity:1;stroke:none" />
      <path
         sodipodi:nodetypes="sssss"
         inkscape:connector-curvature="0"
         id="path3950-8"
         d="m 568.86377,547.48385 c 0,7.61279 -4.71626,9.25159 -10.98876,11.23584 -6.59099,2.08499 -15.4788,-5.24473 -15.4788,-12.85752 0,-7.61279 7.94254,-17.95418 14.53353,-17.95418 6.59098,0 11.93403,11.96307 11.93403,19.57586 z"
         style="fill:#0078a4;fill-opacity:1;stroke:none" />
      <path
         sodipodi:nodetypes="sssss"
         inkscape:connector-curvature="0"
         id="path3950-8-8"
         d="m 622.03523,521.53715 c 0,7.6128 -4.71628,9.25161 -10.98878,11.23584 -6.59098,2.085 -15.4788,-5.24472 -15.4788,-12.85751 0,-7.61279 7.94254,-17.95418 14.53354,-17.95418 6.59098,0 11.93404,11.96306 11.93404,19.57585 z"
         style="fill:#0078a4;fill-opacity:1;stroke:none" />
      <path
         sodipodi:nodetypes="sssss"
         inkscape:connector-curvature="0"
         id="path3950-8-8-2"
         d="m 642.59487,546.09385 c 0,7.61278 -4.71627,9.25159 -10.98877,11.23584 -6.59099,2.085 -15.4788,-5.24472 -15.4788,-12.85752 0,-7.61278 7.94254,-17.95417 14.53354,-17.95417 6.59097,0 11.93403,11.96306 11.93403,19.57585 z"
         style="fill:#0078a4;fill-opacity:1;stroke:none" />
      <path
         sodipodi:nodetypes="csccsccc"
         inkscape:connector-curvature="0"
         id="path3806"
         d="m 591.14675,538.99253 c -10.43858,0.10692 -12.43121,1.47616 -20.44817,17.72107 -9.86692,19.99352 9.60144,26.9789 19.14105,27.0626 l 6.08291,0.0134 c 9.53076,-0.0767 30.15822,-7.07228 20.28625,-27.07603 -8.01696,-16.24492 -10.23952,-17.61416 -20.6781,-17.72107 -1.63517,-0.0421 -2.96692,-0.031 -4.38394,0 z"
         style="fill:#0078a4;fill-opacity:1;stroke:none" />
    </g>
  </g>
</svg>
