<?xml version="1.0" encoding="UTF-8" standalone="no"?>
<!-- Created with Inkscape (http://www.inkscape.org/) -->

<svg
   xmlns:dc="http://purl.org/dc/elements/1.1/"
   xmlns:cc="http://creativecommons.org/ns#"
   xmlns:rdf="http://www.w3.org/1999/02/22-rdf-syntax-ns#"
   xmlns:svg="http://www.w3.org/2000/svg"
   xmlns="http://www.w3.org/2000/svg"
   xmlns:sodipodi="http://sodipodi.sourceforge.net/DTD/sodipodi-0.dtd"
   xmlns:inkscape="http://www.inkscape.org/namespaces/inkscape"
   width="758.48199"
   height="183.55861"
   id="svg4260"
   version="1.1"
   inkscape:version="0.91 r13725"
   sodipodi:docname="tpaw 2016 vertical logo.svg"
   inkscape:export-filename="C:\Users\zc456\Box Sync\Default Sync Folder\My Media\TPaw\Logos\tpaw 2016 vertical logo.png"
   inkscape:export-xdpi="29.908703"
   inkscape:export-ydpi="29.908703">
  <defs
     id="defs4262" />
  <sodipodi:namedview
     id="base"
     pagecolor="#ffffff"
     bordercolor="#666666"
     borderopacity="1.0"
     inkscape:pageopacity="0"
     inkscape:pageshadow="2"
     inkscape:zoom="0.97227183"
     inkscape:cx="248.236"
     inkscape:cy="31.371098"
     inkscape:current-layer="layer1"
     showgrid="true"
     inkscape:document-units="px"
     inkscape:grid-bbox="true"
     inkscape:window-width="1280"
     inkscape:window-height="790"
     inkscape:window-x="-8"
     inkscape:window-y="-8"
     inkscape:window-maximized="1"
     fit-margin-top="0"
     fit-margin-left="0"
     fit-margin-right="0"
     fit-margin-bottom="0" />
  <metadata
     id="metadata4265">
    <rdf:RDF>
      <cc:Work
         rdf:about="">
        <dc:format>image/svg+xml</dc:format>
        <dc:type
           rdf:resource="http://purl.org/dc/dcmitype/StillImage" />
        <dc:title></dc:title>
      </cc:Work>
    </rdf:RDF>
  </metadata>
  <g
     id="layer1"
     inkscape:label="Layer 1"
     inkscape:groupmode="layer"
     transform="translate(114.74947,268.75423)">
    <g
       transform="matrix(1.7401218,0.01806549,0.06665929,1.8123556,-765.93397,-1164.8791)"
       id="g4167"
       inkscape:transform-center-x="38.471726"
       inkscape:transform-center-y="-46.048187"
       style="fill:#0078a4;fill-opacity:1">
      <path
         inkscape:connector-curvature="0"
         d="m 355.98183,493.72216 c -0.48703,0.96349 -0.84419,4.39429 -1.07146,10.29238 -0.22728,5.89826 -0.32469,11.7069 -0.29221,17.42593 0.0324,5.71916 0.1948,8.79179 0.48703,9.21789 0.54113,0.0133 2.52711,0.0763 5.95793,0.18903 3.4308,0.11281 6.8129,0.19572 10.14633,0.24872 3.33338,0.0531 5.12454,-0.003 5.37349,-0.16913 0.009,-0.37966 0.0721,-1.93339 0.1894,-4.66117 0.11722,-2.72767 0.23447,-5.42554 0.35174,-8.09364 0.11722,-2.66796 0.18035,-4.10229 0.1894,-4.30299 l 12.12689,-0.13432 c 0.006,0.2645 0.067,2.95076 0.18264,8.05881 0.11563,5.10817 0.24956,11.05153 0.4018,17.83011 0.15215,6.77867 0.28609,12.80598 0.40178,18.08195 0.11564,5.27602 0.17652,8.21412 0.18264,8.81432 -0.21469,0.44856 -1.73348,0.83492 -4.55638,1.15907 -2.82296,0.3242 -5.66213,0.58122 -8.51751,0.77106 -2.85542,0.18989 -4.43915,0.30762 -4.75118,0.3532 -0.10013,0.26782 -0.19213,1.88123 -0.27598,4.84026 -0.0839,2.95905 -0.14342,5.92555 -0.17858,8.89951 -0.0352,2.97396 -0.0297,4.61723 0.0163,4.9298 0.3542,0.0713 3.5815,0.13012 9.68188,0.17628 6.10031,0.0462 13.16749,0.0546 21.20152,0.0252 8.03394,-0.0294 15.1285,-0.12173 21.28371,-0.27702 6.15507,-0.15531 9.46454,-0.39875 9.92844,-0.73033 0.18391,-0.65002 0.23802,-2.46904 0.16234,-5.45711 -0.0758,-2.98805 -0.21653,-5.93134 -0.42209,-8.82987 -0.20571,-2.89849 -0.41135,-4.53845 -0.6169,-4.91984 -0.37526,-0.16166 -1.80025,-0.21141 -4.27498,-0.14924 -2.47488,0.0622 -4.91722,0.13184 -7.327,0.20893 -2.40994,0.0771 -3.70506,0.0572 -3.88537,-0.0597 -0.0172,-0.37635 -0.16558,-3.22491 -0.44518,-8.5457 -0.27973,-5.32074 -0.58792,-11.45998 -0.92458,-18.41774 -0.3368,-6.95766 -0.59934,-13.08011 -0.78761,-18.36736 -0.1884,-5.28712 -0.19982,-8.08531 -0.0342,-8.39459 0.77004,-0.0699 2.66335,-0.13145 5.67992,-0.18468 3.01643,-0.0531 4.72709,-0.0811 5.13201,-0.084 0.0152,0.19573 0.14694,1.59524 0.39503,4.19853 0.24795,2.60343 0.52032,5.23663 0.81712,7.89962 0.29665,2.66312 0.52573,4.18201 0.68724,4.55671 0.37692,0.18495 2.12299,0.3375 5.23821,0.45767 3.11507,0.12027 6.21399,0.17333 9.29675,0.15918 3.08259,-0.014 4.76372,-0.13011 5.04341,-0.34822 0.0334,-0.36826 0.0303,-2.53615 -0.009,-6.50371 -0.0396,-3.96743 -0.0975,-8.53198 -0.1735,-13.69368 -0.0762,-5.16154 -0.1523,-9.7177 -0.22829,-13.66849 -0.0762,-3.95061 -0.13403,-6.09333 -0.1735,-6.42816 -0.5012,-0.12373 -5.22457,-0.086 -14.17012,0.11332 -8.94572,0.19947 -19.32616,0.49748 -31.14138,0.89403 -11.81531,0.39674 -22.27795,0.82906 -31.38793,1.29696 -9.11002,0.4681 -14.07994,0.90881 -14.90978,1.32216 z"
         style="font-style:normal;font-variant:normal;font-weight:normal;font-stretch:normal;font-size:140.08807373px;line-height:125%;font-family:'HVD Comic Serif Pro';-inkscape-font-specification:'HVD Comic Serif Pro';letter-spacing:0px;word-spacing:0px;fill:#0078a4;fill-opacity:1;stroke:none"
         id="path4028" />
      <path
         inkscape:connector-curvature="0"
         d="m 461.94966,587.07001 c 0.24541,0.008 2.72238,0.0594 7.43092,0.1553 4.70852,0.0959 10.17611,0.18958 16.40282,0.28122 6.22664,0.0917 11.7399,0.13501 16.53978,0.13011 4.7998,-0.005 7.41375,-0.10423 7.84186,-0.298 0.23443,-0.48254 0.34987,-2.20374 0.34632,-5.16361 -0.004,-2.95986 -0.0722,-5.87496 -0.20563,-8.7453 -0.13354,-2.87031 -0.27784,-4.41242 -0.43291,-4.62635 -0.31301,-0.0232 -1.60272,-0.20062 -3.86914,-0.53228 -2.26651,-0.33162 -4.50862,-0.67818 -6.72634,-1.03969 -2.21781,-0.36146 -3.41011,-0.59858 -3.57691,-0.71136 -0.0152,-0.19585 -0.0579,-1.5166 -0.12785,-3.96225 -0.0701,-2.44559 -0.0761,-5.64673 -0.0183,-9.60341 4.95948,0.14016 10.56024,-0.42363 16.80232,-1.69136 6.24197,-1.26764 11.71286,-4.07993 16.41271,-8.43687 4.6997,-4.35685 7.21599,-11.09905 7.54887,-20.22662 -0.28926,-12.47708 -4.53244,-20.69818 -12.72959,-24.66331 -8.19728,-3.96495 -17.73686,-5.77258 -28.61875,-5.4229 -4.20557,0.004 -9.07401,0.0415 -14.60531,0.11441 -5.53135,0.0731 -10.45389,0.16094 -14.76765,0.26365 -4.31377,0.10291 -6.74708,0.20074 -7.29994,0.29351 -0.31477,0.3566 -0.41578,2.3 -0.30304,5.8302 0.11274,3.53037 0.2823,7.04573 0.50868,10.54609 0.22636,3.50051 0.35263,5.38422 0.3788,5.65112 0.38657,-0.0196 1.98765,-0.0811 4.80326,-0.18468 2.8156,-0.10347 4.52627,-0.13145 5.13202,-0.0839 0.11527,0.30472 0.26823,3.04485 0.45887,8.22041 0.19061,5.17567 0.38466,11.16031 0.58215,17.95393 0.19744,6.7937 0.3641,12.76995 0.49995,17.92874 0.13582,5.15885 0.20659,7.8738 0.21232,8.14486 -0.32571,-0.0223 -1.8294,-0.0112 -4.51107,0.0336 -2.68168,0.0448 -4.58716,0.25744 -5.71644,0.63799 -0.48883,0.49084 -0.59886,2.27008 -0.3301,5.33771 0.26877,3.06766 0.63494,6.09054 1.09852,9.06864 0.46356,2.97811 0.74315,4.57827 0.83876,4.80047 z m 33.75077,-55.06852 -0.58444,-16.65487 c 0.19838,-0.0845 1.5873,-0.15414 4.16676,-0.20894 2.57938,-0.0547 5.1588,0.41297 7.73828,1.40284 2.57936,0.99001 3.96828,3.00968 4.16675,6.05902 -0.19126,3.33221 -1.52966,5.66693 -4.01524,7.0042 -2.48567,1.33738 -4.9713,2.10015 -7.45688,2.2883 -2.48566,0.18827 -3.82408,0.22475 -4.01523,0.10945 z"
         style="font-style:normal;font-variant:normal;font-weight:normal;font-stretch:normal;font-size:140.08807373px;line-height:125%;font-family:'HVD Comic Serif Pro';-inkscape-font-specification:'HVD Comic Serif Pro';letter-spacing:0px;word-spacing:0px;fill:#0078a4;fill-opacity:1;stroke:none"
         id="path4030" />
      <g
         transform="translate(-1,6)"
         id="g4158"
         style="fill:#0078a4;fill-opacity:1">
        <path
           style="fill:#0078a4;fill-opacity:1;stroke:none"
           d="m 593.40509,524.15563 c 0,7.61279 -4.71627,9.2516 -10.98875,11.23585 -6.59099,2.085 -15.47882,-5.24473 -15.47882,-12.85752 0,-7.6128 7.94255,-17.95418 14.53356,-17.95418 6.59097,0 11.93401,11.96306 11.93401,19.57585 z"
           id="path3950"
           inkscape:connector-curvature="0"
           sodipodi:nodetypes="sssss" />
        <path
           style="fill:#0078a4;fill-opacity:1;stroke:none"
           d="m 569.77333,547.48988 c 0,7.61279 -4.71626,9.25159 -10.98876,11.23584 -6.59099,2.08499 -15.4788,-5.24473 -15.4788,-12.85752 0,-7.61279 7.94254,-17.95418 14.53353,-17.95418 6.59098,0 11.93403,11.96307 11.93403,19.57586 z"
           id="path3950-8"
           inkscape:connector-curvature="0"
           sodipodi:nodetypes="sssss" />
        <path
           style="fill:#0078a4;fill-opacity:1;stroke:none"
           d="m 622.94479,521.54318 c 0,7.6128 -4.71628,9.25161 -10.98878,11.23584 -6.59098,2.085 -15.4788,-5.24472 -15.4788,-12.85751 0,-7.61279 7.94254,-17.95418 14.53354,-17.95418 6.59098,0 11.93404,11.96306 11.93404,19.57585 z"
           id="path3950-8-8"
           inkscape:connector-curvature="0"
           sodipodi:nodetypes="sssss" />
        <path
           style="fill:#0078a4;fill-opacity:1;stroke:none"
           d="m 643.50443,546.09988 c 0,7.61278 -4.71627,9.25159 -10.98877,11.23584 -6.59099,2.085 -15.4788,-5.24472 -15.4788,-12.85752 0,-7.61278 7.94254,-17.95417 14.53354,-17.95417 6.59097,0 11.93403,11.96306 11.93403,19.57585 z"
           id="path3950-8-8-2"
           inkscape:connector-curvature="0"
           sodipodi:nodetypes="sssss" />
        <path
           style="fill:#0078a4;fill-opacity:1;stroke:none"
           d="m 592.05631,538.99856 c -10.43858,0.10692 -12.43121,1.47616 -20.44817,17.72107 -9.86692,19.99352 9.60144,26.9789 19.14105,27.0626 l 6.08291,0.0134 c 9.53076,-0.0767 30.15822,-7.07228 20.28625,-27.07603 -8.01696,-16.24492 -10.23952,-17.61416 -20.6781,-17.72107 -1.63517,-0.0421 -2.96692,-0.031 -4.38394,0 z"
           id="path3806"
           inkscape:connector-curvature="0"
           sodipodi:nodetypes="csccsccc" />
      </g>
      <g
         id="text3792-6"
         style="font-style:normal;font-variant:normal;font-weight:normal;font-stretch:normal;font-size:140.08807373px;line-height:125%;font-family:'HVD Comic Serif Pro';-inkscape-font-specification:'HVD Comic Serif Pro';letter-spacing:0px;word-spacing:0px;fill:#0078a4;fill-opacity:1;stroke:none"
         transform="matrix(1.0429801,0,0,0.95879109,0,-4)">
        <path
           id="path4033"
           style="font-family:'HVD Comic Serif Pro';-inkscape-font-specification:'HVD Comic Serif Pro';fill:#0078a4;fill-opacity:1"
           d="m 697.02824,552.48033 -12.74785,-0.42026 -16.81036,29.69829 -7.42457,-17.09052 7.42457,-0.28018 c 0.0795,-0.97622 0.0605,-2.91495 -0.0571,-5.81617 -0.11765,-2.90111 -0.25082,-5.66997 -0.39951,-8.3066 -0.14878,-2.6365 -0.23006,-4.046 -0.24385,-4.22853 l -41.88579,-0.42026 c -0.29142,1.64133 -0.31563,3.91557 -0.0726,6.82272 0.24299,2.90729 0.54045,5.56546 0.8924,7.97454 0.35194,2.40919 0.54564,3.68726 0.5811,3.83422 l 8.82543,0.42026 c 0.89845,4.26143 2.8683,10.47883 5.90957,18.65222 3.04123,8.17346 5.96575,15.70871 8.77355,22.60578 2.80775,6.89709 4.31065,10.56181 4.5087,10.99417 3.35036,0.63039 7.19106,0.87554 11.5221,0.73546 4.33095,-0.14009 6.70074,-0.24516 7.10938,-0.3152 l 16.95044,-30.95906 19.05173,30.5388 c 3.29194,0.63039 6.89915,0.87554 10.82166,0.73546 3.92232,-0.14009 6.05863,-0.24516 6.40895,-0.3152 2.96678,-4.66002 6.16974,-11.07632 9.60888,-19.24889 3.43891,-8.17254 6.4032,-15.63688 8.89288,-22.39305 2.48943,-6.75609 3.79345,-10.33952 3.91204,-10.75032 l 8.40518,-0.56035 c 0.0203,-4.69867 -0.12563,-8.9246 -0.43777,-12.67781 -0.31242,-3.75307 -0.49336,-5.73763 -0.54283,-5.95366 -0.1767,-0.004 -2.28383,-0.0222 -6.3214,-0.0547 -4.03781,-0.0324 -8.73654,-0.055 -14.09618,-0.0679 -5.35987,-0.0127 -10.11113,0.008 -14.25378,0.0635 -4.14285,0.0552 -6.40758,0.16824 -6.79418,0.33927 l -0.14009,18.63148 7.98492,0.42025 -6.72414,16.95044 z"
           inkscape:connector-curvature="0" />
      </g>
    </g>
  </g>
</svg>
